<svg width="30" height="30" viewBox="0 0 30 30" fill="none" xmlns="http://www.w3.org/2000/svg">
<g clip-path="url(#clip0_55815_1326)">
<path d="M3 6.53003L6.633 13.0238V16.9848L3.00425 23.4658L3 6.53003Z" fill="#5B57A2"/>
<path d="M16.9492 10.6609L20.3535 8.57437L27.3205 8.56787L16.9492 14.9214V10.6609Z" fill="#D90751"/>
<path d="M16.93 6.49175L16.9492 15.0892L13.3077 12.8517V0L16.9302 6.49175H16.93Z" fill="#FAB718"/>
<path d="M27.3205 8.56775L20.3532 8.57425L16.93 6.49175L13.3077 0L27.3202 8.56775H27.3205Z" fill="#ED6F26"/>
<path d="M16.9492 23.5017V19.3305L13.3077 17.1355L13.3097 30L16.9492 23.5017Z" fill="#63B22F"/>
<path d="M20.345 21.4343L6.63275 13.0238L3 6.53003L27.3058 21.4258L20.345 21.4343Z" fill="#1487C9"/>
<path d="M13.3096 30L16.9486 23.5018L20.3443 21.4343L27.3051 21.4258L13.3096 30Z" fill="#017F36"/>
<path d="M3.00391 23.4657L13.3372 17.1357L9.86316 15.0042L6.63266 16.9847L3.00391 23.4657Z" fill="#984995"/>
</g>
<defs>
<clipPath id="clip0_55815_1326">
<rect width="30" height="30" fill="white"/>
</clipPath>
</defs>
</svg>
