<svg width="30" height="30" viewBox="0 0 30 30" fill="none" xmlns="http://www.w3.org/2000/svg">
<g clip-path="url(#clip0_55815_43)">
<path d="M30 15C30 18.9782 28.4197 22.7936 25.6066 25.6066C22.7936 28.4196 18.9783 30 15 30C11.0218 30 7.20645 28.4196 4.3934 25.6066C1.58035 22.7936 2.00468e-07 18.9782 0 15C2.00468e-07 11.0218 1.58035 7.20644 4.3934 4.3934C7.20645 1.58035 11.0218 0 15 0C18.9783 0 22.7936 1.58035 25.6066 4.3934C28.4197 7.20644 30 11.0218 30 15Z" fill="#FB3F1D"/>
<path d="M20.1594 23.8554H17.0581V8.45171H15.6742C13.1371 8.45171 11.8043 9.73275 11.8043 11.6297C11.8043 13.7822 12.7269 14.7821 14.6232 16.0638L16.1866 17.1148L11.6759 23.8554H8.31836L12.3678 17.8323C10.0358 16.166 8.72854 14.5515 8.72854 11.8092C8.72854 8.37441 11.1123 6.04236 15.6487 6.04236H20.1594V23.8554Z" fill="white"/>
</g>
<defs>
<clipPath id="clip0_55815_43">
<rect width="30" height="30" fill="white"/>
</clipPath>
</defs>
</svg>
